<?xml version="1.0" encoding="UTF-8" standalone="no"?>
<!-- Created with Inkscape (http://www.inkscape.org/) -->

<svg
   xmlns:osb="http://www.openswatchbook.org/uri/2009/osb"
   xmlns:dc="http://purl.org/dc/elements/1.1/"
   xmlns:cc="http://creativecommons.org/ns#"
   xmlns:rdf="http://www.w3.org/1999/02/22-rdf-syntax-ns#"
   xmlns:svg="http://www.w3.org/2000/svg"
   xmlns="http://www.w3.org/2000/svg"
   xmlns:sodipodi="http://sodipodi.sourceforge.net/DTD/sodipodi-0.dtd"
   xmlns:inkscape="http://www.inkscape.org/namespaces/inkscape"
   width="56.283001"
   height="118.78499"
   id="svg2"
   version="1.1"
   inkscape:version="0.48.0 r9654"
   sodipodi:docname="alien.svg">
  <defs
     id="defs4">
    <linearGradient
       id="linearGradient6095"
       osb:paint="solid">
      <stop
         style="stop-color:#00a200;stop-opacity:1;"
         offset="0"
         id="stop6097" />
    </linearGradient>
  </defs>
  <sodipodi:namedview
     id="base"
     pagecolor="#ffffff"
     bordercolor="#666666"
     borderopacity="1.0"
     inkscape:pageopacity="0.0"
     inkscape:pageshadow="2"
     inkscape:zoom="1.979899"
     inkscape:cx="-45.419582"
     inkscape:cy="101.33513"
     inkscape:document-units="px"
     inkscape:current-layer="layer1"
     showgrid="false"
     inkscape:window-width="1383"
     inkscape:window-height="856"
     inkscape:window-x="250"
     inkscape:window-y="55"
     inkscape:window-maximized="0"
     fit-margin-top="0"
     fit-margin-left="0"
     fit-margin-right="0"
     fit-margin-bottom="0" />
  <metadata
     id="metadata7">
    <rdf:RDF>
      <cc:Work
         rdf:about="">
        <dc:format>image/svg+xml</dc:format>
        <dc:type
           rdf:resource="http://purl.org/dc/dcmitype/StillImage" />
        <dc:title />
        <dc:subject>
          <rdf:Bag>
            <rdf:li>simple</rdf:li>
          </rdf:Bag>
        </dc:subject>
      </cc:Work>
    </rdf:RDF>
  </metadata>
  <g
     inkscape:label="Layer 1"
     inkscape:groupmode="layer"
     id="layer1"
     transform="translate(-360.72724,-481.33542)">
    <path
       style="fill:#000000;fill-opacity:1;fill-rule:nonzero;stroke:none"
       d="m 108.5625,59.0625 c -11.73605,0 -21.25,9.51395 -21.25,21.25 0,5.86802 4.87325,20.12325 8.71875,23.96875 3.84549,3.84549 6.66323,6.5625 12.53125,6.5625 5.86803,0 8.31076,-2.37326 12.15625,-6.21875 3.84549,-3.8455 9.09375,-18.44448 9.09375,-24.3125 0,-11.73605 -9.51395,-21.25 -21.25,-21.25 z m -7.5,27 c 3.25454,0 5.90625,2.651715 5.90625,5.90625 0,3.254535 -2.65171,5.875 -5.90625,5.875 -3.254535,0 -5.90625,-2.620465 -5.90625,-5.875 0,-3.254535 2.651715,-5.90625 5.90625,-5.90625 z m 15,0 c 3.25454,0 5.90625,2.651715 5.90625,5.90625 0,3.254535 -2.65171,5.875 -5.90625,5.875 -3.25454,0 -5.90625,-2.620465 -5.90625,-5.875 0,-3.254535 2.65171,-5.90625 5.90625,-5.90625 z"
       transform="translate(282.30619,422.27292)"
       id="path6146"
       inkscape:connector-curvature="0" />
    <path
       style="fill:#000000;fill-opacity:1;stroke:none"
       d="m 386.50654,530.28185 c -0.32096,2.01219 -0.64191,2.76169 -0.96287,4.77388 -3.74144,0.35006 -8.24058,0.32952 -11.20103,3.34957 -4.43675,4.99249 -10.53444,8.60367 -13.6154,14.72043 0.0782,4.91298 7.1329,3.66133 8.11226,-0.10976 2.26931,-1.47003 6.5743,-6.90925 9.07292,-6.12669 1.09855,8.08771 1.84519,17.99947 -0.75495,26.04425 -1.5859,7.17265 -2.37767,14.52259 -2.68748,21.83474 0.14035,3.0801 3.16433,6.42167 6.3983,5.02524 3.4955,-1.4521 3.38889,-5.7319 3.33788,-8.90212 0.24394,-7.05308 3.09385,-13.65004 4.61465,-20.46723 1.49073,8.7867 3.498,17.59386 3.19088,26.56213 1.34606,4.35138 9.12753,3.38313 9.15223,-1.25513 0.17055,-10.03087 -0.59991,-20.0429 -1.0663,-30.05109 0.0576,-6.36751 1.31407,-12.63305 2.0516,-18.93797 3.41374,3.71955 6.32747,8.209 11.01887,10.45669 4.00684,-0.83437 5.29053,-7.01789 1.86368,-9.31248 -3.64712,-4.08061 -8.0458,-7.38117 -11.94267,-11.20589 -2.78838,-1.76853 -8.24044,1.30335 -9.12335,-3.21056 -0.42251,-1.12111 0.0873,-3.28802 -1.81799,-2.74586 -1.88041,-0.14746 -3.76079,-0.29512 -5.64123,-0.44215 z"
       id="path6178"
       inkscape:connector-curvature="0"
       sodipodi:nodetypes="ccccccccccccccccccccc" />
  </g>
</svg>
