<?xml version="1.0" encoding="UTF-8" standalone="no"?>
<!-- Created with Inkscape (http://www.inkscape.org/) -->

<svg
   xmlns:dc="http://purl.org/dc/elements/1.1/"
   xmlns:cc="http://creativecommons.org/ns#"
   xmlns:rdf="http://www.w3.org/1999/02/22-rdf-syntax-ns#"
   xmlns:svg="http://www.w3.org/2000/svg"
   xmlns="http://www.w3.org/2000/svg"
   xmlns:sodipodi="http://sodipodi.sourceforge.net/DTD/sodipodi-0.dtd"
   xmlns:inkscape="http://www.inkscape.org/namespaces/inkscape"
   width="517.90625"
   height="494.4375"
   id="svg2"
   version="1.1"
   inkscape:version="0.48.0 r9654"
   sodipodi:docname="car.svg">
  <defs
     id="defs4" />
  <sodipodi:namedview
     id="base"
     pagecolor="#ffffff"
     bordercolor="#666666"
     borderopacity="1.0"
     inkscape:pageopacity="0.0"
     inkscape:pageshadow="2"
     inkscape:zoom="0.67"
     inkscape:cx="265.07692"
     inkscape:cy="82.303986"
     inkscape:document-units="px"
     inkscape:current-layer="layer1"
     showgrid="false"
     inkscape:window-width="1337"
     inkscape:window-height="856"
     inkscape:window-x="0"
     inkscape:window-y="22"
     inkscape:window-maximized="0"
     fit-margin-top="0"
     fit-margin-left="0"
     fit-margin-right="0"
     fit-margin-bottom="0" />
  <metadata
     id="metadata7">
    <rdf:RDF>
      <cc:Work
         rdf:about="">
        <dc:format>image/svg+xml</dc:format>
        <dc:type
           rdf:resource="http://purl.org/dc/dcmitype/StillImage" />
        <dc:title />
        <dc:subject>
          <rdf:Bag>
            <rdf:li>simple</rdf:li>
          </rdf:Bag>
        </dc:subject>
      </cc:Work>
    </rdf:RDF>
  </metadata>
  <g
     inkscape:label="Layer 1"
     inkscape:groupmode="layer"
     id="layer1"
     transform="translate(-129.84375,-315.06249)">
    <g
       id="g3968"
       transform="matrix(0.71443767,0,0,0.62952592,-51.009788,251.97674)"
       style="fill:#000000;fill-opacity:1;stroke:none">
      <path
         style="fill:#000000;fill-rule:nonzero"
         d="m 205.96875,315.0625 -25.375,26.84375 -32.28125,176.125 -18.46875,0 0,194.03125 46.28125,0 0,62.875 0,2.34375 0.0937,0 c 1.36858,17.98665 18.33429,32.21875 39.0938,32.21875 20.75952,0 37.72522,-14.2321 39.09375,-32.21875 l 0.125,0 0,-2.34375 0,-62.875 272.3125,0 0,65.21875 0.125,0 C 528.33728,795.2679 545.30299,809.5 566.0625,809.5 c 20.75952,0 37.72522,-14.2321 39.09375,-32.21875 l 0.125,0 0,-65.21875 42.46875,0 0,-194.03125 -20.46875,0 -31.75,-180.59375 -20.90625,-22.375 -368.65625,0 z m 25.375,28.34375 320.90625,0 10.4375,11.9375 27.34375,162.6875 -404.40625,0 30.78125,-162.6875 14.9375,-11.9375 z m -4.46875,211.9375 c 18.13472,0 32.8125,14.70903 32.8125,32.84375 0,18.13472 -14.67778,32.84375 -32.8125,32.84375 -18.13472,0 -32.84375,-14.70903 -32.84375,-32.84375 0,-18.13472 14.70903,-32.84375 32.84375,-32.84375 z m 320.875,0 c 18.13472,0 32.84375,14.70903 32.84375,32.84375 0,18.13472 -14.70903,32.84375 -32.84375,32.84375 -18.13472,0 -32.8125,-14.70903 -32.8125,-32.84375 0,-18.13472 14.67778,-32.84375 32.8125,-32.84375 z"
         transform="matrix(1.3997022,0,0,1.5884969,71.398514,-400.26428)"
         id="path3964"
         inkscape:connector-curvature="0" />
    </g>
    <g
       transform="matrix(0.71443767,0,0,0.62952592,299.73648,251.97674)"
       id="g3972"
       style="fill:#000000;fill-opacity:1;stroke:none" />
    <path
       transform="translate(62.686567,129.85075)"
       style="fill:#000000;fill-opacity:1;fill-rule:nonzero;stroke:none"
       d="m 456.7164,265.79501 c 0,18.13473 -14.70109,32.83582 -32.83582,32.83582 -18.13472,0 -32.83581,-14.70109 -32.83581,-32.83582 0,-18.13472 14.70109,-32.83582 32.83581,-32.83582 18.13473,0 32.83582,14.7011 32.83582,32.83582 z"
       id="path3984"
       inkscape:connector-curvature="0" />
    <g
       transform="matrix(1.2311695,0,0,-0.38016836,30.988025,769.51595)"
       id="g3986"
       style="fill:#000000;fill-opacity:1;stroke:none">
      <path
         style="fill:#000000;fill-opacity:1;fill-rule:nonzero;stroke:none"
         d="m 489.9375,432.84375 c -35.7694,0 -65.00965,8.57753 -67.375,19.4375 l -0.1875,0 0,1.40625 0,58.78125 135.125,0 0,-58.78125 0,-1.40625 -0.15625,0 c -2.3619,-10.861 -31.63445,-19.4375 -67.40625,-19.4375 z"
         transform="matrix(0.81223585,0,0,-2.6304135,-25.169585,2024.1452)"
         id="path3988"
         inkscape:connector-curvature="0" />
    </g>
  </g>
</svg>
