<?xml version="1.0" encoding="UTF-8" standalone="no"?>
<!-- Created with Inkscape (http://www.inkscape.org/) -->

<svg
   xmlns:dc="http://purl.org/dc/elements/1.1/"
   xmlns:cc="http://creativecommons.org/ns#"
   xmlns:rdf="http://www.w3.org/1999/02/22-rdf-syntax-ns#"
   xmlns:svg="http://www.w3.org/2000/svg"
   xmlns="http://www.w3.org/2000/svg"
   xmlns:sodipodi="http://sodipodi.sourceforge.net/DTD/sodipodi-0.dtd"
   xmlns:inkscape="http://www.inkscape.org/namespaces/inkscape"
   width="391.85703"
   height="606.79291"
   id="svg2"
   version="1.1"
   inkscape:version="0.48.0 r9654"
   sodipodi:docname="flower.svg">
  <defs
     id="defs4" />
  <sodipodi:namedview
     id="base"
     pagecolor="#ffffff"
     bordercolor="#666666"
     borderopacity="1.0"
     inkscape:pageopacity="0.0"
     inkscape:pageshadow="2"
     inkscape:zoom="0.67"
     inkscape:cx="195.92851"
     inkscape:cy="482.50093"
     inkscape:document-units="px"
     inkscape:current-layer="layer1"
     showgrid="false"
     inkscape:window-width="1337"
     inkscape:window-height="856"
     inkscape:window-x="0"
     inkscape:window-y="22"
     inkscape:window-maximized="0"
     fit-margin-top="0"
     fit-margin-left="0"
     fit-margin-right="0"
     fit-margin-bottom="0" />
  <metadata
     id="metadata7">
    <rdf:RDF>
      <cc:Work
         rdf:about="">
        <dc:format>image/svg+xml</dc:format>
        <dc:type
           rdf:resource="http://purl.org/dc/dcmitype/StillImage" />
        <dc:title />
        <dc:subject>
          <rdf:Bag>
            <rdf:li>simple</rdf:li>
          </rdf:Bag>
        </dc:subject>
      </cc:Work>
    </rdf:RDF>
  </metadata>
  <g
     inkscape:label="Layer 1"
     inkscape:groupmode="layer"
     id="layer1"
     transform="translate(-176.11873,-222.78464)">
    <rect
       style="fill:#008000;fill-opacity:1;fill-rule:evenodd;stroke:none"
       id="rect3907"
       width="16.41791"
       height="361.19406"
       x="363.97638"
       y="429.23239">
      <desc
         id="desc3931">fixedColor</desc>
    </rect>
    <path
       sodipodi:type="arc"
       style="fill:#000000;fill-opacity:1;fill-rule:nonzero;stroke:none"
       id="path3921"
       sodipodi:cx="123.8806"
       sodipodi:cy="352.36218"
       sodipodi:rx="52.238808"
       sodipodi:ry="88.0597"
       d="m 176.11941,352.36218 c 0,48.63403 -23.38811,88.0597 -52.23881,88.0597 -28.850697,0 -52.238808,-39.42567 -52.238808,-88.0597 0,-48.63403 23.388111,-88.0597 52.238808,-88.0597 28.8507,0 52.23881,39.42567 52.23881,88.0597 z"
       transform="matrix(0.51670825,-0.65152236,-0.64093321,-0.52524502,443.54263,594.27359)" />
    <path
       transform="matrix(-0.2267945,-0.64469946,-0.9117493,0.16036677,619.87951,442.3856)"
       d="m 176.11941,352.36218 c 0,48.63403 -23.38811,88.0597 -52.23881,88.0597 -28.850697,0 -52.238808,-39.42567 -52.238808,-88.0597 0,-48.63403 23.388111,-88.0597 52.238808,-88.0597 28.8507,0 52.23881,39.42567 52.23881,88.0597 z"
       sodipodi:ry="88.0597"
       sodipodi:rx="52.238808"
       sodipodi:cy="352.36218"
       sodipodi:cx="123.8806"
       id="path3923"
       style="fill:#000000;fill-opacity:1;fill-rule:nonzero;stroke:none"
       sodipodi:type="arc" />
    <path
       sodipodi:type="arc"
       style="fill:#000000;fill-opacity:1;fill-rule:nonzero;stroke:none"
       id="path3925"
       sodipodi:cx="123.8806"
       sodipodi:cy="352.36218"
       sodipodi:rx="52.238808"
       sodipodi:ry="88.0597"
       d="m 176.11941,352.36218 c 0,48.63403 -23.38811,88.0597 -52.23881,88.0597 -28.850697,0 -52.238808,-39.42567 -52.238808,-88.0597 0,-48.63403 23.388111,-88.0597 52.238808,-88.0597 28.8507,0 52.23881,39.42567 52.23881,88.0597 z"
       transform="matrix(-0.59316167,-0.4832268,-0.4530803,0.63262872,552.90143,322.15056)" />
    <path
       transform="matrix(-0.47357401,-0.65152236,0.58742882,-0.52524502,304.46128,580.84076)"
       d="m 176.11941,352.36218 c 0,48.63403 -23.38811,88.0597 -52.23881,88.0597 -28.850697,0 -52.238808,-39.42567 -52.238808,-88.0597 0,-48.63403 23.388111,-88.0597 52.238808,-88.0597 28.8507,0 52.23881,39.42567 52.23881,88.0597 z"
       sodipodi:ry="88.0597"
       sodipodi:rx="52.238808"
       sodipodi:cy="352.36218"
       sodipodi:cx="123.8806"
       id="path3919"
       style="fill:#000000;fill-opacity:1;fill-rule:nonzero;stroke:none"
       sodipodi:type="arc" />
    <path
       sodipodi:type="arc"
       style="fill:#000000;fill-opacity:1;fill-rule:nonzero;stroke:none"
       id="path3917"
       sodipodi:cx="123.8806"
       sodipodi:cy="352.36218"
       sodipodi:rx="52.238808"
       sodipodi:ry="88.0597"
       d="m 176.11941,352.36218 c 0,48.63403 -23.38811,88.0597 -52.23881,88.0597 -28.850697,0 -52.238808,-39.42567 -52.238808,-88.0597 0,-48.63403 23.388111,-88.0597 52.238808,-88.0597 28.8507,0 52.23881,39.42567 52.23881,88.0597 z"
       transform="matrix(0.19760223,-0.75969258,0.79439184,0.18897091,169.28515,435.86185)" />
    <path
       transform="matrix(0.61944796,-0.48322681,0.47315883,0.63262872,182.66478,317.67294)"
       d="m 176.11941,352.36218 c 0,48.63403 -23.38811,88.0597 -52.23881,88.0597 -28.850697,0 -52.238808,-39.42567 -52.238808,-88.0597 0,-48.63403 23.388111,-88.0597 52.238808,-88.0597 28.8507,0 52.23881,39.42567 52.23881,88.0597 z"
       sodipodi:ry="88.0597"
       sodipodi:rx="52.238808"
       sodipodi:cy="352.36218"
       sodipodi:cx="123.8806"
       id="path3915"
       style="fill:#000000;fill-opacity:1;fill-rule:nonzero;stroke:none"
       sodipodi:type="arc" />
    <path
       sodipodi:type="arc"
       style="fill:#000000;fill-opacity:1;fill-rule:nonzero;stroke:none"
       id="path3911"
       sodipodi:cx="123.8806"
       sodipodi:cy="352.36218"
       sodipodi:rx="52.238808"
       sodipodi:ry="88.0597"
       d="m 176.11941,352.36218 c 0,48.63403 -23.38811,88.0597 -52.23881,88.0597 -28.850697,0 -52.238808,-39.42567 -52.238808,-88.0597 0,-48.63403 23.388111,-88.0597 52.238808,-88.0597 28.8507,0 52.23881,39.42567 52.23881,88.0597 z"
       transform="matrix(0.80000001,0,0,0.83050847,269.34951,3.2791909)" />
    <path
       style="fill:#008000;fill-opacity:1;fill-rule:nonzero;stroke:none"
       inkscape:transform-center-x="2.9939539"
       inkscape:transform-center-y="6.6524239"
       d="m 368.8689,797.34637 c -7.82542,17.95487 -11.70968,26.47698 -18.5079,30.03543 -6.79823,3.55845 -16.51042,2.15325 -35.99172,0.25353 -38.9626,-3.79945 -128.14775,-66.04283 -136.57711,-104.30077 -8.42937,-38.25791 17.72799,-98.95516 17.72799,-98.95516 0,0 91.49455,10.75268 120.7844,36.74555 29.28984,25.99289 68.2152,100.31169 52.56434,136.22141 z"
       id="path3899"
       inkscape:connector-curvature="0"
       sodipodi:nodetypes="sssscss">
      <desc
         id="desc3935">fixedColor</desc>
    </path>
    <path
       sodipodi:type="arc"
       style="fill:#ffffff;fill-opacity:1;fill-rule:nonzero;stroke:none"
       id="path3909"
       sodipodi:cx="282.08954"
       sodipodi:cy="453.10846"
       sodipodi:rx="56.716419"
       sodipodi:ry="52.985073"
       d="m 338.80596,453.10846 c 0,29.26285 -25.39281,52.98507 -56.71642,52.98507 -31.32361,0 -56.71642,-23.72222 -56.71642,-52.98507 0,-29.26285 25.39281,-52.98507 56.71642,-52.98507 31.32361,0 56.71642,23.72222 56.71642,52.98507 z"
       transform="translate(89.349513,-55.965602)">
      <desc
         id="desc3937">fixedColor</desc>
    </path>
    <path
       sodipodi:nodetypes="sssscss"
       inkscape:connector-curvature="0"
       id="path3929"
       d="m 375.22558,797.34636 c 7.82542,17.95488 11.70968,26.47698 18.5079,30.03543 6.79823,3.55845 16.51042,2.15325 35.99172,0.25353 38.9626,-3.79945 128.14775,-66.04283 136.57711,-104.30076 8.42937,-38.25792 -17.72799,-98.95516 -17.72799,-98.95516 0,0 -91.49455,10.75268 -120.7844,36.74555 -29.28984,25.99289 -68.2152,100.31169 -52.56434,136.22141 z"
       inkscape:transform-center-y="6.6524239"
       inkscape:transform-center-x="-2.9939534"
       style="fill:#008000;fill-opacity:1;fill-rule:nonzero;stroke:none">
      <desc
         id="desc3933">fixedColor</desc>
    </path>
  </g>
</svg>
