<?xml version="1.0" encoding="UTF-8" standalone="no"?>
<!-- Created with Inkscape (http://www.inkscape.org/) -->

<svg
   xmlns:osb="http://www.openswatchbook.org/uri/2009/osb"
   xmlns:dc="http://purl.org/dc/elements/1.1/"
   xmlns:cc="http://creativecommons.org/ns#"
   xmlns:rdf="http://www.w3.org/1999/02/22-rdf-syntax-ns#"
   xmlns:svg="http://www.w3.org/2000/svg"
   xmlns="http://www.w3.org/2000/svg"
   xmlns:sodipodi="http://sodipodi.sourceforge.net/DTD/sodipodi-0.dtd"
   xmlns:inkscape="http://www.inkscape.org/namespaces/inkscape"
   width="88.354111"
   height="167.07285"
   id="svg2"
   version="1.1"
   inkscape:version="0.48.0 r9654"
   sodipodi:docname="zombie.svg">
  <defs
     id="defs4">
    <linearGradient
       id="linearGradient6095"
       osb:paint="solid">
      <stop
         style="stop-color:#00a200;stop-opacity:1;"
         offset="0"
         id="stop6097" />
    </linearGradient>
  </defs>
  <sodipodi:namedview
     id="base"
     pagecolor="#ffffff"
     bordercolor="#666666"
     borderopacity="1.0"
     inkscape:pageopacity="0.0"
     inkscape:pageshadow="2"
     inkscape:zoom="2.8"
     inkscape:cx="75.61761"
     inkscape:cy="88.096833"
     inkscape:document-units="px"
     inkscape:current-layer="layer1"
     showgrid="false"
     inkscape:window-width="1383"
     inkscape:window-height="856"
     inkscape:window-x="191"
     inkscape:window-y="0"
     inkscape:window-maximized="0"
     fit-margin-top="0"
     fit-margin-left="0"
     fit-margin-right="0"
     fit-margin-bottom="0" />
  <metadata
     id="metadata7">
    <rdf:RDF>
      <cc:Work
         rdf:about="">
        <dc:format>image/svg+xml</dc:format>
        <dc:type
           rdf:resource="http://purl.org/dc/dcmitype/StillImage" />
        <dc:title />
        <dc:subject>
          <rdf:Bag>
            <rdf:li>simple</rdf:li>
          </rdf:Bag>
        </dc:subject>
      </cc:Work>
    </rdf:RDF>
  </metadata>
  <g
     inkscape:label="Layer 1"
     inkscape:groupmode="layer"
     id="layer1"
     transform="translate(-313.02494,-432.63758)">
    <path
       style="fill:#000000;fill-opacity:1;fill-rule:nonzero;stroke:none"
       d="m 374.38621,460.38383 c 0,5.03738 0.82518,7.29847 2.7007,8.30022 1.87551,1.00174 4.80137,0.74414 9.00273,0.74414 4.20136,0 6.24946,-4.80111 9.00274,-8.10226 2.75327,-3.30116 4.16362,-10.31437 4.16362,-15.35176 0,-5.03739 -1.92238,-9.67454 -4.89509,-11.21281 -2.97272,-1.53828 -8.4587,-2.12378 -12.66005,-2.12378 -4.20136,0 -4.78653,2.0418 -7.53981,5.34296 -2.75327,3.30115 -2.40811,4.1826 -2.40811,9.21998 z"
       id="path6146"
       inkscape:connector-curvature="0"
       sodipodi:nodetypes="cssssssscc" />
    <path
       style="fill:#000000;fill-opacity:1;stroke:none"
       d="m 104.65625,44.6875 c -1.90848,0.03348 -2.50447,0.361605 -5.71875,0.09375 -0.59524,3.92857 -2.62351,3.22768 -3.21875,7.15625 -5.8224,0.19082 -13.47491,1.88958 -19.28125,2.25 -15.24592,2.58008 -28.34783,6.57617 -43.59375,9.15625 l -2.125,5.375 3.9375,3.5625 15.46875,-3.5 31.65625,-2.5625 c 0.152382,1.216472 0.269966,2.429953 0.34375,3.65625 L 53.21875,73 l -7.5,4.28125 5,6.0625 10.34375,-3.21875 20.96875,0.3125 c -0.410124,7.492404 -1.31619,15.025167 -1.125,22.4375 l -6.96875,48.84375 0.25,20.875 1.5,4.71875 12.15625,0.125 L 86.78125,163.5 88.5625,146 97.5,111 l -3.21875,35.34375 0.375,27.15625 6.0625,2.125 6.53125,-0.0937 1.125,-7.03125 -1.9375,-26.0625 12.3125,-39.09375 c 0.0624,4.4e-4 0.12498,-7.2e-4 0.1875,0 -0.46897,-12.54209 0.46893,-18.98916 0,-31.53125 L 113.875,59.5 c -2.97619,-2.02381 -4.46131,-4.85119 -7.4375,-6.875 -0.59524,-3.21429 1.31399,-4.62946 0.71875,-7.84375 -1.07143,-0.08928 -1.86384,-0.104912 -2.5,-0.09375 z"
       transform="translate(282.30619,422.27292)"
       id="path3008"
       inkscape:connector-curvature="0" />
  </g>
</svg>
