<?xml version="1.0" encoding="UTF-8" standalone="no"?>
<!-- Created with Inkscape (http://www.inkscape.org/) -->

<svg
   xmlns:osb="http://www.openswatchbook.org/uri/2009/osb"
   xmlns:dc="http://purl.org/dc/elements/1.1/"
   xmlns:cc="http://creativecommons.org/ns#"
   xmlns:rdf="http://www.w3.org/1999/02/22-rdf-syntax-ns#"
   xmlns:svg="http://www.w3.org/2000/svg"
   xmlns="http://www.w3.org/2000/svg"
   xmlns:sodipodi="http://sodipodi.sourceforge.net/DTD/sodipodi-0.dtd"
   xmlns:inkscape="http://www.inkscape.org/namespaces/inkscape"
   width="131.45264"
   height="142.076"
   id="svg2"
   version="1.1"
   inkscape:version="0.48.0 r9654"
   sodipodi:docname="bug.svg">
  <defs
     id="defs4">
    <linearGradient
       id="linearGradient6095"
       osb:paint="solid">
      <stop
         style="stop-color:#00a200;stop-opacity:1;"
         offset="0"
         id="stop6097" />
    </linearGradient>
  </defs>
  <sodipodi:namedview
     id="base"
     pagecolor="#ffffff"
     bordercolor="#666666"
     borderopacity="1.0"
     inkscape:pageopacity="0.0"
     inkscape:pageshadow="2"
     inkscape:zoom="2.8"
     inkscape:cx="76.35615"
     inkscape:cy="81.175413"
     inkscape:document-units="px"
     inkscape:current-layer="layer1"
     showgrid="false"
     inkscape:window-width="1128"
     inkscape:window-height="819"
     inkscape:window-x="250"
     inkscape:window-y="55"
     inkscape:window-maximized="0"
     fit-margin-top="0"
     fit-margin-left="0"
     fit-margin-right="0"
     fit-margin-bottom="0" />
  <metadata
     id="metadata7">
    <rdf:RDF>
      <cc:Work
         rdf:about="">
        <dc:format>image/svg+xml</dc:format>
        <dc:type
           rdf:resource="http://purl.org/dc/dcmitype/StillImage" />
        <dc:title />
        <dc:subject>
          <rdf:Bag>
            <rdf:li>simple</rdf:li>
            <rdf:li>rotate</rdf:li>
          </rdf:Bag>
        </dc:subject>
      </cc:Work>
    </rdf:RDF>
  </metadata>
  <g
     inkscape:label="Layer 1"
     inkscape:groupmode="layer"
     id="layer1"
     transform="translate(-347.34078,-455.33438)">
    <path
       style="fill:#4d4d4d;fill-opacity:1;stroke:none"
       d="m 452.38015,593.75354 4.98155,1.32314 1.35296,-4.91771 -1.81759,-5.42825 -6.0621,-6.18615 -7.54118,-3.67045 -4.13505,4.32088 10.50086,6.90089 2.42847,3.59147 z"
       id="path6117"
       inkscape:connector-curvature="0">
      <desc
         id="desc3026">fixedColor</desc>
    </path>
    <path
       inkscape:connector-curvature="0"
       id="path6115"
       d="m 369.42182,593.75355 -4.98155,1.32313 -1.35296,-4.91771 1.81759,-5.42825 6.0621,-6.18615 7.54118,-3.67045 4.13505,4.32088 -10.50086,6.90089 -2.42847,3.59147 z"
       style="fill:#4d4d4d;fill-opacity:1;stroke:none">
      <desc
         id="desc3028">fixedColor</desc>
    </path>
    <path
       inkscape:connector-curvature="0"
       id="path4569"
       d="m 433.31258,462.29777 2.37219,-4.57594 -4.50716,-2.38745 -5.69326,0.59687 -7.3538,4.57594 -5.21882,6.56547 3.32107,4.97385 9.01433,-8.75398 4.03272,-1.59163 z"
       style="fill:#4d4d4d;fill-opacity:1;stroke:none">
      <desc
         id="desc3018">fixedColor</desc>
    </path>
    <path
       style="fill:#4d4d4d;fill-opacity:1;stroke:none"
       d="m 392.42679,463.01206 -2.37219,-4.57594 4.50716,-2.38745 5.69326,0.59687 7.3538,4.57594 5.21882,6.56547 -3.32107,4.97385 -9.01433,-8.75398 -4.03272,-1.59163 z"
       id="path6105"
       inkscape:connector-curvature="0">
      <desc
         id="desc3020">fixedColor</desc>
    </path>
    <path
       style="fill:#4d4d4d;fill-opacity:1;stroke:none"
       d="m 352.34524,544.12089 -5.00446,-1.23367 1.17684,-4.96281 4.20262,-3.88683 8.28909,-2.51168 8.37719,0.40528 1.54975,5.77641 -12.52516,1.00532 -3.85563,1.98249 z"
       id="path6113"
       inkscape:connector-curvature="0">
      <desc
         id="desc3030">fixedColor</desc>
    </path>
    <path
       inkscape:connector-curvature="0"
       id="path6111"
       d="m 473.78895,545.54946 5.00446,-1.23367 -1.17684,-4.96281 -4.20262,-3.88683 -8.28909,-2.51168 -8.37719,0.40528 -1.54975,5.77641 12.52516,1.00532 3.85563,1.98249 z"
       style="fill:#4d4d4d;fill-opacity:1;stroke:none">
      <desc
         id="desc3024">fixedColor</desc>
    </path>
    <path
       style="fill:#4d4d4d;fill-opacity:1;stroke:none"
       d="m 465.09831,493.65491 2.37219,-4.57594 -4.50716,-2.38745 -5.69326,0.59687 -7.3538,4.57594 -5.21882,6.56547 3.32107,4.97385 9.01433,-8.75398 4.03272,-1.59163 z"
       id="path6109"
       inkscape:connector-curvature="0">
      <desc
         id="desc3022">fixedColor</desc>
    </path>
    <path
       inkscape:connector-curvature="0"
       id="path6107"
       d="m 358.49822,492.94063 -2.37219,-4.57594 4.50716,-2.38745 5.69326,0.59687 7.3538,4.57594 5.21882,6.56547 -3.32107,4.97385 -9.01433,-8.75398 -4.03272,-1.59163 z"
       style="fill:#4d4d4d;fill-opacity:1;stroke:none">
      <desc
         id="desc3032">fixedColor</desc>
    </path>
    <path
       style="fill:#4d4d4d;fill-opacity:1;stroke:none"
       d="m 449.7035,486.11433 c -9.66221,-16.53232 -23.01042,-19.91822 -37.75445,-19.91822 -14.74403,0 -26.30654,3.3859 -35.96874,19.91822 z"
       id="path4619"
       inkscape:connector-curvature="0"
       sodipodi:nodetypes="cscc">
      <desc
         id="desc3016">fixedColor</desc>
    </path>
    <path
       style="fill:#d40000;fill-opacity:1;stroke:none"
       d="m 376.15888,485.90005 c -9.66221,12.08584 -17.42412,31.6394 -17.42412,50.08177 0,18.44237 2.40477,31.21022 12.06697,43.29606 9.66221,12.08584 26.22472,18.13251 40.96875,18.13251 14.74403,0 29.87796,-4.97524 39.54016,-17.06108 9.66221,-12.08584 14.20984,-25.92512 14.20984,-44.36749 0,-18.44237 -5.9762,-37.99593 -15.63841,-50.08177 z"
       id="path4614"
       inkscape:connector-curvature="0"
       sodipodi:nodetypes="cssssscc" />
    <path
       sodipodi:type="arc"
       style="fill:#000000;fill-opacity:1;stroke:none"
       id="path4621"
       sodipodi:cx="50.714287"
       sodipodi:cy="33.351757"
       sodipodi:rx="9.6428576"
       sodipodi:ry="9.6428576"
       d="m 60.357144,33.351757 c 0,5.325603 -4.317254,9.642858 -9.642857,9.642858 -5.325603,0 -9.642858,-4.317255 -9.642858,-9.642858 0,-5.325603 4.317255,-9.642858 9.642858,-9.642858 5.325603,0 9.642857,4.317255 9.642857,9.642858 z"
       transform="matrix(1.3333333,0,0,1.3333333,372.54428,517.94139)">
      <desc
         id="desc3006">fixedColor</desc>
    </path>
    <path
       transform="translate(386.94905,472.98721)"
       d="m 60.357144,33.351757 c 0,5.325603 -4.317254,9.642858 -9.642857,9.642858 -5.325603,0 -9.642858,-4.317255 -9.642858,-9.642858 0,-5.325603 4.317255,-9.642858 9.642858,-9.642858 5.325603,0 9.642857,4.317255 9.642857,9.642858 z"
       sodipodi:ry="9.6428576"
       sodipodi:rx="9.6428576"
       sodipodi:cy="33.351757"
       sodipodi:cx="50.714287"
       id="path4623"
       style="fill:#000000;fill-opacity:1;stroke:none"
       sodipodi:type="arc">
      <desc
         id="desc3002">fixedColor</desc>
    </path>
    <path
       sodipodi:type="arc"
       style="fill:#000000;fill-opacity:1;stroke:none"
       id="path4627"
       sodipodi:cx="50.714287"
       sodipodi:cy="33.351757"
       sodipodi:rx="9.6428576"
       sodipodi:ry="9.6428576"
       d="m 60.357144,33.351757 c 0,5.325603 -4.317254,9.642858 -9.642857,9.642858 -5.325603,0 -9.642858,-4.317255 -9.642858,-9.642858 0,-5.325603 4.317255,-9.642858 9.642858,-9.642858 5.325603,0 9.642857,4.317255 9.642857,9.642858 z"
       transform="matrix(0.77777779,0,0,0.77777779,387.14746,507.54156)">
      <desc
         id="desc3004">fixedColor</desc>
    </path>
    <path
       sodipodi:type="arc"
       style="fill:#000000;fill-opacity:1;stroke:none"
       id="path4629"
       sodipodi:cx="50.714287"
       sodipodi:cy="33.351757"
       sodipodi:rx="9.6428576"
       sodipodi:ry="9.6428576"
       d="m 60.357144,33.351757 c 0,5.325603 -4.317254,9.642858 -9.642857,9.642858 -5.325603,0 -9.642858,-4.317255 -9.642858,-9.642858 0,-5.325603 4.317255,-9.642858 9.642858,-9.642858 5.325603,0 9.642857,4.317255 9.642857,9.642858 z"
       transform="translate(335.87763,472.98721)">
      <desc
         id="desc3014">fixedColor</desc>
    </path>
    <path
       transform="matrix(1.3333333,0,0,1.3333333,318.97285,522.2271)"
       d="m 60.357144,33.351757 c 0,5.325603 -4.317254,9.642858 -9.642857,9.642858 -5.325603,0 -9.642858,-4.317255 -9.642858,-9.642858 0,-5.325603 4.317255,-9.642858 9.642858,-9.642858 5.325603,0 9.642857,4.317255 9.642857,9.642858 z"
       sodipodi:ry="9.6428576"
       sodipodi:rx="9.6428576"
       sodipodi:cy="33.351757"
       sodipodi:cx="50.714287"
       id="path4631"
       style="fill:#00000f;fill-opacity:1;stroke:none"
       sodipodi:type="arc">
      <desc
         id="desc3010">fixedColor</desc>
    </path>
    <rect
       style="fill:#000000;fill-opacity:1;fill-rule:evenodd;stroke:none"
       id="rect6101"
       width="111.07143"
       height="2.5"
       x="485.44611"
       y="-413.19904"
       transform="matrix(0,1,-1,0,0,0)">
      <desc
         id="desc3008">fixedColor</desc>
    </rect>
    <path
       transform="matrix(0.77777779,0,0,0.77777779,358.57604,507.18441)"
       d="m 60.357144,33.351757 c 0,5.325603 -4.317254,9.642858 -9.642857,9.642858 -5.325603,0 -9.642858,-4.317255 -9.642858,-9.642858 0,-5.325603 4.317255,-9.642858 9.642858,-9.642858 5.325603,0 9.642857,4.317255 9.642857,9.642858 z"
       sodipodi:ry="9.6428576"
       sodipodi:rx="9.6428576"
       sodipodi:cy="33.351757"
       sodipodi:cx="50.714287"
       id="path6103"
       style="fill:#000000;fill-opacity:1;stroke:none"
       sodipodi:type="arc">
      <desc
         id="desc3012">fixedColor</desc>
    </path>
  </g>
</svg>
